<?xml version="1.0" ?><!DOCTYPE svg  PUBLIC '-//W3C//DTD SVG 1.1//EN'  'http://www.w3.org/Graphics/SVG/1.1/DTD/svg11.dtd'><svg height="512px" style="enable-background:new 0 0 512 512;" version="1.1" viewBox="0 0 512 512" width="512px" xml:space="preserve" xmlns="http://www.w3.org/2000/svg" xmlns:xlink="http://www.w3.org/1999/xlink"><g id="comp_x5F_84-dev"><g><path d="M188.437,221.898c-0.009-18.484-11.717-46.436-46.525-46.436H95.379v162.505h45.573    c36.093,0.06,47.496-27.934,47.496-46.408L188.437,221.898z M160.702,291.377c0,5.705-1.907,9.978-5.716,12.826    c-3.81,2.846-7.632,4.271-11.443,4.271h-17.139V205.87h17.129c3.811,0,7.633,1.424,11.443,4.272    c3.801,2.847,5.715,7.13,5.726,12.826V291.377z"/><path d="M287.328,204.485H235v37.734h31.987v29.041H235v37.724h52.339v29.044h-61.071c-10.959,0.282-20.074-8.379-20.349-19.339    V195.813c-0.267-10.951,8.406-20.045,19.357-20.319h62.063L287.328,204.485L287.328,204.485z"/><path d="M389.117,317.717c-12.965,30.201-36.191,24.189-46.594,0l-37.84-142.214h31.988l29.18,111.69l29.043-111.69h31.996    L389.117,317.717L389.117,317.717z"/><path d="    M424.401,471H87.599C61.863,471,41,450.137,41,424.401V87.599C41,61.863,61.863,41,87.599,41h336.802    C450.137,41,471,61.863,471,87.599v336.802C471,450.137,450.137,471,424.401,471z" style="fill:none;stroke:#000000;stroke-width:20;stroke-linecap:round;stroke-linejoin:round;stroke-miterlimit:10;"/></g></g><g id="Layer_1"/></svg>